<?xml version="1.0" encoding="UTF-8" standalone="no"?>
<!DOCTYPE svg PUBLIC "-//W3C//DTD SVG 20010904//EN" "http://www.w3.org/TR/2001/REC-SVG-20010904/DTD/svg10.dtd">
<svg version="1.0" xmlns="http://www.w3.org/2000/svg" width="900.000000pt" height="174.000000pt" viewBox="0 0 900.000000 174.000000" preserveAspectRatio="xMidYMid meet">
<metadata>
Created by potrace 1.10, written by Peter Selinger 2001-2011
</metadata>
<g transform="translate(0.000000,174.000000) scale(0.100000,-0.100000)" fill="#96de3d" stroke="none">
<path d="M2977 1582 c-11 -2 -17 -13 -17 -33 0 -32 2 -34 29 -17 10 6 26 8 36 5 14 -6 16 -17 12 -65 -3 -31 -6 -66 -8 -77 -4 -19 3 -20 138 -27 77 -4 350 -4 605 0 254 4 843 5 1308 2 465 -3 855 -2 868 2 12 4 22 14 22 23 0 11 -11 15 -44 15 -25 0 -48 5 -51 10 -4 7 -43 8 -110 4 -74 -5 -113 -3 -134 6 -26 10 -35 10 -56 -4 -30 -20 -69 -21 -85 -1 -18 22 -3 35 44 35 50 0 59 6 45 31 -8 16 -17 18 -49 13 -39 -6 -40 -6 -40 21 0 28 0 28 56 22 43 -4 56 -2 61 9 3 8 2 18 -2 22 -7 7 -187 4 -194 -4 -2 -2 3 -12 12 -22 11 -12 17 -36 17 -68 0 -65 -14 -73 -105 -63 -38 4 -176 6 -305 4 -657 -8 -631 -8 -647 8 -12 11 -14 27 -8 66 4 28 11 51 16 51 18 0 8 28 -12 33 -33 9 -50 -3 -47 -31 3 -22 -2 -27 -29 -32 -40 -9 -56 1 -51 31 3 21 -1 24 -33 27 l-36 3 4 -73 c2 -40 0 -78 -4 -83 -5 -7 -99 -8 -292 -3 -172 5 -289 4 -295 -1 -19 -16 -473 -16 -491 -1 -10 8 -15 30 -15 66 0 51 2 54 24 54 14 0 28 -4 31 -10 3 -5 10 -10 14 -10 14 0 21 44 10 55 -9 9 -153 14 -192 7z m1357 -132 c23 -22 -44 -60 -69 -40 -18 15 -19 46 -2 54 15 6 59 -2 71 -14z"/>
<path d="M0 1238 c0 -24 4 -26 71 -32 88 -9 99 -13 99 -37 0 -15 -7 -19 -40 -19 -58 0 -54 -26 6 -33 84 -9 79 19 79 -475 0 -273 -4 -452 -10 -477 -16 -58 -60 -85 -141 -85 l-64 0 0 -30 0 -30 158 4 157 4 3 213 c2 180 5 216 19 231 14 16 15 44 10 249 -5 202 -4 231 10 236 17 7 39 -18 73 -82 12 -22 30 -53 40 -70 11 -16 24 -39 30 -50 6 -11 18 -32 28 -47 35 -54 107 -169 120 -191 7 -12 42 -67 77 -122 35 -55 76 -124 90 -152 30 -59 63 -71 83 -30 6 12 25 45 42 72 16 28 33 57 37 65 4 8 26 43 50 78 24 35 43 65 43 67 0 2 13 23 29 47 16 24 37 59 48 78 10 19 31 54 46 77 15 24 27 46 27 50 0 3 6 14 14 22 7 9 26 39 41 66 75 137 102 174 116 157 3 -4 3 -168 1 -364 -5 -412 -1 -398 -93 -398 -59 0 -89 -13 -89 -40 0 -22 36 -36 68 -26 10 4 62 7 115 7 68 1 100 5 108 15 8 10 11 125 10 401 -2 435 -3 431 59 412 52 -16 608 -24 775 -10 128 10 141 10 152 -6 10 -13 10 -20 -1 -32 -14 -16 -196 -319 -196 -327 0 -2 -18 -34 -41 -70 -22 -37 -45 -77 -50 -88 -5 -12 -18 -34 -29 -51 -11 -16 -23 -37 -27 -45 -8 -19 -62 -90 -82 -110 -27 -25 -66 -48 -91 -52 -13 -1 -25 -8 -27 -15 -8 -24 31 -31 112 -22 50 5 113 5 169 -2 74 -8 92 -7 104 5 20 19 7 36 -27 36 -16 0 -45 7 -65 15 -45 19 -48 51 -11 116 14 24 27 51 31 59 18 44 40 83 50 87 6 2 126 5 265 6 271 2 264 3 289 -48 6 -11 19 -33 30 -50 11 -16 24 -40 29 -52 5 -11 15 -24 20 -28 6 -3 11 -22 11 -40 0 -41 -22 -56 -90 -65 -30 -3 -46 -10 -48 -21 -5 -26 22 -30 129 -17 75 8 143 8 272 -1 184 -12 541 -14 725 -3 113 7 159 1 147 -18 -3 -5 -25 -10 -49 -10 -60 0 -106 -18 -106 -41 0 -22 -9 -21 150 -19 155 2 164 7 154 91 -4 35 -2 59 4 63 6 3 77 1 157 -5 126 -10 149 -9 161 3 21 20 0 37 -52 42 -123 11 -144 36 -144 169 0 76 2 87 18 87 243 3 955 -1 962 -5 6 -4 7 -72 3 -175 -5 -141 -4 -170 8 -175 8 -3 66 -6 129 -7 109 -3 115 -2 115 17 0 17 -8 20 -45 23 -66 3 -88 10 -110 32 -18 18 -20 34 -20 188 0 117 4 172 12 180 7 7 33 12 59 12 52 0 25 23 347 -288 90 -86 171 -159 180 -161 9 -2 22 -11 28 -20 11 -14 64 -16 541 -16 l528 1 3 23 c5 34 -7 41 -75 45 -67 4 -94 15 -117 48 -14 19 -16 75 -16 403 0 341 2 383 17 405 25 37 32 40 99 40 33 0 65 5 71 11 16 16 433 15 461 0 12 -6 39 -11 62 -11 31 0 55 -9 93 -34 65 -43 307 -288 307 -310 0 -13 -11 -16 -55 -16 -68 0 -70 -13 -10 -59 51 -38 59 -70 23 -99 -60 -48 -275 -239 -339 -302 -131 -126 -195 -170 -245 -170 -32 0 -94 -26 -94 -39 0 -23 37 -29 125 -19 50 5 166 6 258 3 l169 -7 -4 28 c-3 28 -4 29 -73 32 -54 2 -75 8 -92 23 l-21 21 20 33 c10 19 38 50 61 71 105 92 174 154 239 217 45 43 78 67 93 67 16 0 39 -18 72 -56 52 -61 55 -64 158 -179 39 -43 78 -87 87 -96 10 -10 20 -29 23 -41 10 -42 -8 -53 -97 -58 -80 -5 -83 -6 -86 -30 l-3 -25 348 0 348 1 0 25 c0 22 -5 25 -60 30 -85 9 -131 32 -189 95 -28 30 -94 99 -146 153 -52 55 -118 123 -146 152 -28 30 -76 78 -107 107 -32 30 -57 62 -57 72 0 32 47 53 102 47 l50 -6 101 93 c56 51 129 119 162 150 92 87 154 119 237 121 78 3 90 10 81 44 l-6 23 -116 -8 c-140 -10 -180 -10 -294 1 l-89 8 4 -29 c3 -28 5 -29 68 -34 65 -5 65 -5 68 -37 3 -29 -7 -41 -144 -162 -108 -96 -154 -131 -173 -131 -20 0 -47 23 -117 98 -130 139 -146 160 -146 189 0 33 29 56 62 49 14 -3 42 0 63 6 29 9 37 16 35 31 -3 19 -17 19 -528 23 -311 2 -564 -1 -620 -7 -52 -5 -120 -13 -150 -16 -30 -3 -120 0 -198 7 -123 12 -145 11 -153 -1 -21 -33 -6 -44 74 -50 51 -3 83 -10 93 -21 14 -13 16 -65 15 -414 0 -220 0 -406 0 -415 -1 -23 -67 -48 -125 -47 -27 0 -52 -5 -55 -10 -9 -15 -178 -19 -193 -4 -7 7 -26 12 -43 12 -61 1 -114 38 -288 204 -34 32 -82 74 -107 94 -25 20 -49 41 -55 47 -5 6 -22 20 -37 29 -20 13 -28 27 -28 47 0 27 3 29 38 30 20 0 60 8 87 18 l50 18 3 189 c2 186 2 189 -20 206 -13 10 -34 18 -48 18 -14 0 -45 7 -70 16 -62 22 -432 33 -455 14 -14 -12 -15 -44 -10 -276 7 -260 6 -262 -14 -274 -16 -8 -36 -8 -79 0 -83 16 -789 10 -819 -8 -19 -11 -27 -10 -48 4 l-25 16 0 264 c0 199 3 265 13 271 6 4 79 6 161 4 163 -3 178 -8 218 -64 12 -17 24 -46 27 -65 7 -38 29 -59 55 -49 15 6 16 19 10 114 -4 60 -11 114 -17 121 -8 10 -73 13 -310 11 -284 -2 -301 -3 -320 -22 -19 -19 -33 -20 -288 -18 l-268 2 -16 -37 c-12 -28 -15 -64 -13 -139 l3 -100 27 -3 c20 -2 28 2 32 20 22 78 33 101 64 129 42 39 81 48 196 49 49 0 107 5 129 12 69 21 67 31 67 -443 0 -230 -2 -423 -5 -431 -8 -19 -843 -12 -889 8 -47 21 -77 51 -106 109 -6 11 -18 32 -28 47 -9 15 -37 60 -61 100 -24 40 -48 76 -53 79 -5 3 -10 19 -11 35 -2 27 0 29 31 26 47 -3 50 19 10 80 -19 29 -38 60 -41 68 -4 8 -16 29 -27 45 -11 17 -24 39 -30 50 -6 11 -19 34 -30 50 -10 17 -29 50 -42 75 -13 25 -27 48 -33 52 -20 15 -140 9 -164 -8 -20 -14 -34 -15 -113 -5 -58 8 -255 11 -554 11 -255 -1 -469 2 -475 6 -7 4 -9 20 -6 39 8 46 -16 65 -81 65 -57 0 -55 2 -153 -158 -24 -40 -52 -85 -61 -100 -10 -15 -22 -36 -27 -47 -5 -11 -20 -36 -33 -55 -13 -19 -27 -42 -31 -50 -4 -8 -16 -28 -27 -45 -11 -16 -23 -37 -27 -45 -4 -8 -19 -33 -33 -55 -14 -22 -37 -61 -51 -88 -40 -79 -52 -91 -77 -78 -12 7 -22 18 -22 25 0 7 -14 32 -30 54 -17 23 -30 46 -30 50 0 5 -12 27 -28 49 -15 21 -32 48 -39 59 -10 16 -37 59 -113 179 -50 80 -138 222 -157 253 -20 36 -23 37 -80 38 -87 1 -93 5 -93 64 l0 50 -53 0 c-30 0 -102 3 -160 7 l-107 6 0 -25z m5759 -187 c81 -28 120 -69 134 -137 12 -62 -3 -105 -53 -154 -60 -58 -98 -70 -245 -81 -182 -13 -165 -33 -165 190 0 103 3 191 7 195 14 14 274 4 322 -13z m-3116 -195 c16 -31 33 -58 38 -61 5 -4 9 -12 9 -20 0 -8 14 -34 30 -58 17 -25 30 -47 30 -51 0 -3 13 -25 29 -48 18 -25 26 -47 21 -52 -7 -7 -369 -12 -432 -7 -15 2 -8 23 20 65 15 22 31 48 35 56 4 8 19 35 33 60 14 25 42 74 60 110 58 109 75 110 127 6z"/>
</g>
</svg>